<svg width="21" height="22" viewBox="0 0 21 22" fill="none" xmlns="http://www.w3.org/2000/svg">
<path d="M7.12984 3.41278L7.2759 3.4851C7.86625 3.78645 8.34705 4.26258 8.65135 4.8472L8.72439 4.99185C9.01652 5.56441 9.84423 5.56441 10.1424 4.99185L10.2155 4.8472C10.5198 4.26258 11.0006 3.78645 11.5909 3.4851L11.737 3.41278C12.3152 3.12348 12.3152 2.30381 11.737 2.00849L11.5909 1.93617C11.0006 1.63482 10.5198 1.15869 10.2155 0.57407L10.1424 0.429423C9.85031 -0.143141 9.02261 -0.143141 8.72439 0.429423L8.65135 0.57407C8.34705 1.15869 7.86625 1.63482 7.2759 1.93617L7.12984 2.00849C6.55166 2.29779 6.55166 3.11746 7.12984 3.41278Z" fill="#4994EC"/>
<path d="M8.2801 9.06006C8.87654 8.75871 8.87654 7.92096 8.2801 7.61961L7.39154 7.16759C6.60035 6.76378 5.95522 6.12492 5.54746 5.34141L5.091 4.46147C4.7867 3.87083 3.94073 3.87083 3.63643 4.46147L3.17997 5.34141C2.77221 6.12492 2.12708 6.76378 1.33589 7.16759L0.447326 7.61961C-0.149109 7.92096 -0.149109 8.75871 0.447326 9.06006L1.33589 9.51209C2.12708 9.9159 2.77221 10.5548 3.17997 11.3383L3.63643 12.2182C3.94073 12.8088 4.7867 12.8088 5.091 12.2182L5.54746 11.3383C5.95522 10.5548 6.60035 9.9159 7.39154 9.51209L8.2801 9.06006Z" fill="#4994EC"/>
<path d="M19.6976 12.6642L18.7968 12.2061C17.7074 11.6577 16.8371 10.7958 16.2833 9.71701L15.8208 8.82501C15.413 8.02945 14.5974 7.53524 13.6967 7.53524C12.796 7.53524 11.9804 8.02945 11.5727 8.82501L11.1101 9.71701C10.5563 10.7958 9.68599 11.6577 8.59658 12.2061L7.69584 12.6642C6.89248 13.068 6.39342 13.8756 6.39342 14.7676C6.39342 15.6596 6.89248 16.4672 7.69584 16.871L8.59658 17.3291C9.68599 17.8775 10.5563 18.7394 11.1101 19.8182L11.5727 20.7102C11.9804 21.5058 12.796 22 13.6967 22C14.5974 22 15.413 21.5058 15.8208 20.7102L16.2833 19.8182C16.8371 18.7394 17.7074 17.8775 18.7968 17.3291L19.6976 16.871C20.5009 16.4672 21 15.6596 21 14.7676C21 13.8756 20.5009 13.068 19.6976 12.6642ZM18.8699 15.2618L17.9691 15.7199C16.5328 16.4431 15.3886 17.5762 14.6583 18.9986L14.1958 19.8906C14.0558 20.1618 13.8002 20.1919 13.6967 20.1919C13.5932 20.1919 13.3376 20.1618 13.1977 19.8906L12.7351 18.9986C12.0048 17.5762 10.8606 16.4431 9.42429 15.7199L8.52355 15.2618C8.24967 15.1232 8.21924 14.8701 8.21924 14.7676C8.21924 14.6652 8.24967 14.412 8.52355 14.2734L9.42429 13.8154C10.8606 13.0921 12.0048 11.959 12.7351 10.5367L13.1977 9.64468C13.3376 9.37347 13.5932 9.34333 13.6967 9.34333C13.8002 9.34333 14.0558 9.37347 14.1958 9.64468L14.6583 10.5367C15.3886 11.959 16.5328 13.0921 17.9691 13.8154L18.8699 14.2734C19.1437 14.412 19.1742 14.6652 19.1742 14.7676C19.1742 14.8701 19.1437 15.1232 18.8699 15.2618Z" fill="#4994EC"/>
</svg>
