<svg width="18" height="19" viewBox="0 0 18 19" fill="none" xmlns="http://www.w3.org/2000/svg">
<path d="M9 0.5C4.039 0.5 0 4.539 0 9.5C0 14.461 4.039 18.5 9 18.5C13.961 18.5 18 14.461 18 9.5C18 4.539 13.961 0.5 9 0.5ZM9 2C11.9315 2 14.457 3.675 15.6915 6.119L10.5865 6.116C10.0914 5.87771 9.54945 5.75269 9 5.75C7.7815 5.75 6.705 6.3475 6.019 7.2545L3.3295 4.5945C4.03219 3.77932 4.90262 3.12548 5.88128 2.6777C6.85994 2.22992 7.92376 1.99875 9 2ZM2.725 5.3925L5.265 9.7945C5.4045 11.568 6.79 13.003 8.5415 13.2195L7.585 16.8625C4.115 16.202 1.5 13.165 1.5 9.5C1.5 7.981 1.9525 6.572 2.725 5.3925ZM16.081 7.0435C16.3475 7.8135 16.5 8.638 16.5 9.5C16.5 13.65 13.15 17 9 17C8.86 17 8.725 16.987 8.587 16.9795L11.1315 12.576C12.1065 11.8975 12.75 10.7715 12.75 9.5C12.7504 8.99809 12.6487 8.50135 12.451 8.04L16.081 7.0435ZM9 7.25C10.2535 7.25 11.25 8.2465 11.25 9.5C11.25 10.7535 10.2535 11.75 9 11.75C8.70397 11.752 8.41049 11.6952 8.13661 11.5828C7.86273 11.4704 7.6139 11.3048 7.40457 11.0954C7.19524 10.8861 7.02958 10.6373 6.91721 10.3634C6.80484 10.0895 6.74801 9.79603 6.75 9.5C6.75 8.2465 7.7465 7.25 9 7.25Z" fill="white"/>
</svg>
