<svg width="20" height="20" viewBox="0 0 20 20" fill="none" xmlns="http://www.w3.org/2000/svg">
<path d="M10 0C6.72833 0 3.8318 1.57879 2.00846 4.00879L5.62663 7.62695C6.47329 6.06945 8.10333 5 10 5C11.1183 5 12.1403 5.37935 12.9736 5.99935H19.0007L14.4743 7.80924C14.8001 8.47341 15 9.21083 15 10C15 11.6433 14.1961 13.0898 12.9736 14.0007H12.9997L9.0332 19.9512C9.3507 19.982 9.67333 20 10 20C15.5233 20 20 15.5233 20 10C20 4.47667 15.5233 0 10 0ZM2.00521 4.01042C0.751875 5.68125 0 7.75 0 10C0 15.1908 3.95609 19.4554 9.01693 19.9495L10.6901 14.93C10.4618 14.9617 10.2358 15 10 15C7.23917 15 5 12.7608 5 10L2.00521 4.01042ZM10 6.66667C9.11594 6.66667 8.2681 7.01786 7.64298 7.64298C7.01786 8.2681 6.66667 9.11594 6.66667 10C6.66667 10.8841 7.01786 11.7319 7.64298 12.357C8.2681 12.9821 9.11594 13.3333 10 13.3333C10.8841 13.3333 11.7319 12.9821 12.357 12.357C12.9821 11.7319 13.3333 10.8841 13.3333 10C13.3333 9.11594 12.9821 8.2681 12.357 7.64298C11.7319 7.01786 10.8841 6.66667 10 6.66667Z" fill="#4994EC"/>
</svg>
