<svg width="30" height="27" viewBox="0 0 30 27" fill="none" xmlns="http://www.w3.org/2000/svg">
<path fill-rule="evenodd" clip-rule="evenodd" d="M15 0.349609C6.7125 0.349609 0 6.4169 0 13.9078C0 19.9073 4.29375 24.9747 10.2563 26.7711C11.0062 26.8898 11.2875 26.483 11.2875 26.1271C11.2875 25.8051 11.2688 24.7374 11.2688 23.6019C7.5 24.229 6.525 22.7715 6.225 22.0088C6.05625 21.619 5.325 20.4157 4.6875 20.0937C4.1625 19.8395 3.4125 19.2124 4.66875 19.1955C5.85 19.1786 6.69375 20.1785 6.975 20.5852C8.325 22.6359 10.4813 22.0597 11.3438 21.7038C11.475 20.8225 11.8688 20.2293 12.3 19.8904C8.9625 19.5514 5.475 18.382 5.475 13.196C5.475 11.7215 6.05625 10.5013 7.0125 9.55223C6.8625 9.21328 6.3375 7.82356 7.1625 5.95931C7.1625 5.95931 8.41875 5.60341 11.2875 7.34903C12.4875 7.04397 13.7625 6.89144 15.0375 6.89144C16.3125 6.89144 17.5875 7.04397 18.7875 7.34903C21.6562 5.58646 22.9125 5.95931 22.9125 5.95931C23.7375 7.82356 23.2125 9.21328 23.0625 9.55223C24.0187 10.5013 24.6 11.7046 24.6 13.196C24.6 18.399 21.0938 19.5514 17.7563 19.8904C18.3 20.3141 18.7688 21.1275 18.7688 22.3986C18.7688 24.212 18.75 25.6695 18.75 26.1271C18.75 26.483 19.0313 26.9067 19.7812 26.7711C25.7063 24.9747 30 19.8904 30 13.9078C30 6.4169 23.2875 0.349609 15 0.349609Z" fill="white"/>
</svg>
