<svg width="295" height="185" viewBox="0 0 295 185" fill="none" xmlns="http://www.w3.org/2000/svg">
<path d="M70.1992 75.7418V84.9215H69.4375C68.8646 82.5257 67.7969 80.6897 66.2344 79.4137C64.6719 78.1377 62.901 77.4996 60.9219 77.4996C59.2682 77.4996 57.7513 77.9749 56.3711 78.9254C54.9909 79.8759 53.9818 81.1194 53.3438 82.6559C52.5234 84.622 52.1133 86.8095 52.1133 89.2184C52.1133 91.5882 52.4128 93.7496 53.0117 95.7028C53.6107 97.6429 54.5482 99.1142 55.8242 100.117C57.1003 101.106 58.7539 101.601 60.7852 101.601C62.4518 101.601 63.9753 101.237 65.3555 100.507C66.7487 99.7783 68.2135 98.5218 69.75 96.7379V99.0231C68.2656 100.573 66.7161 101.699 65.1016 102.402C63.5 103.092 61.625 103.437 59.4766 103.437C56.651 103.437 54.138 102.871 51.9375 101.738C49.75 100.605 48.0573 98.9775 46.8594 96.8551C45.6745 94.7327 45.082 92.4736 45.082 90.0778C45.082 87.5517 45.7396 85.1559 47.0547 82.8903C48.3828 80.6246 50.1667 78.8668 52.4062 77.6168C54.6589 76.3668 57.0482 75.7418 59.5742 75.7418C61.4362 75.7418 63.4023 76.1455 65.4727 76.9528C66.6706 77.4215 67.4323 77.6559 67.7578 77.6559C68.1745 77.6559 68.5326 77.5061 68.832 77.2067C69.1445 76.8942 69.3464 76.4059 69.4375 75.7418H70.1992ZM82.3672 84.0231C83.9557 84.0231 85.4336 84.4332 86.8008 85.2535C88.168 86.0739 89.2031 87.2392 89.9062 88.7496C90.6224 90.2601 90.9805 91.9137 90.9805 93.7106C90.9805 96.3017 90.3229 98.4697 89.0078 100.214C87.4193 102.324 85.2253 103.379 82.4258 103.379C79.6784 103.379 77.5625 102.415 76.0781 100.488C74.5938 98.5608 73.8516 96.3278 73.8516 93.7887C73.8516 91.1715 74.6068 88.8929 76.1172 86.9528C77.6406 84.9996 79.724 84.0231 82.3672 84.0231ZM82.4453 85.4098C81.7812 85.4098 81.2083 85.6637 80.7266 86.1715C80.2578 86.6663 79.9453 87.6559 79.7891 89.1403C79.6458 90.6116 79.5742 92.6624 79.5742 95.2926C79.5742 96.6858 79.6654 97.9879 79.8477 99.1989C79.9909 100.123 80.2969 100.826 80.7656 101.308C81.2344 101.79 81.7682 102.031 82.3672 102.031C82.9531 102.031 83.4414 101.868 83.832 101.543C84.3398 101.1 84.6784 100.481 84.8477 99.6871C85.1081 98.4502 85.2383 95.9502 85.2383 92.1871C85.2383 89.9736 85.1146 88.4567 84.8672 87.6364C84.6198 86.803 84.2552 86.1976 83.7734 85.8199C83.4349 85.5465 82.9922 85.4098 82.4453 85.4098ZM101.332 84.5699V86.9723C102.335 85.8785 103.259 85.1168 104.105 84.6871C104.965 84.2444 105.902 84.0231 106.918 84.0231C108.09 84.0231 109.073 84.2965 109.867 84.8434C110.661 85.3903 111.273 86.2236 111.703 87.3434C112.745 86.1715 113.741 85.3252 114.691 84.8043C115.655 84.2835 116.658 84.0231 117.699 84.0231C118.962 84.0231 119.965 84.316 120.707 84.902C121.462 85.4749 121.983 86.2106 122.27 87.109C122.569 87.9944 122.719 89.4137 122.719 91.3668V98.8473C122.719 100.254 122.842 101.126 123.09 101.464C123.35 101.803 123.884 102.024 124.691 102.129V102.832H115.258V102.129C116 102.063 116.547 101.777 116.898 101.269C117.133 100.918 117.25 100.11 117.25 98.8473V90.9957C117.25 89.3681 117.185 88.333 117.055 87.8903C116.924 87.4476 116.716 87.122 116.43 86.9137C116.156 86.6923 115.831 86.5817 115.453 86.5817C114.893 86.5817 114.327 86.79 113.754 87.2067C113.181 87.6103 112.602 88.2223 112.016 89.0426V98.8473C112.016 100.162 112.126 100.989 112.348 101.328C112.647 101.81 113.22 102.076 114.066 102.129V102.832H104.613V102.129C105.121 102.102 105.518 101.979 105.805 101.757C106.104 101.523 106.299 101.25 106.391 100.937C106.495 100.612 106.547 99.915 106.547 98.8473V90.9957C106.547 89.3421 106.482 88.3069 106.352 87.8903C106.221 87.4736 106 87.1481 105.688 86.9137C105.388 86.6793 105.062 86.5621 104.711 86.5621C104.19 86.5621 103.715 86.6989 103.285 86.9723C102.673 87.3759 102.022 88.066 101.332 89.0426V98.8473C101.332 100.136 101.456 100.989 101.703 101.406C101.964 101.81 102.497 102.05 103.305 102.129V102.832H93.8906V102.129C94.6589 102.05 95.2057 101.803 95.5312 101.386C95.7526 101.1 95.8633 100.254 95.8633 98.8473V88.5348C95.8633 87.1546 95.7331 86.2952 95.4727 85.9567C95.2253 85.6181 94.6979 85.3968 93.8906 85.2926V84.5699H101.332ZM134.145 100.976V107.773C134.145 108.711 134.216 109.349 134.359 109.687C134.516 110.026 134.75 110.273 135.062 110.429C135.375 110.586 135.987 110.664 136.898 110.664V111.386H126.488V110.664C127.296 110.638 127.895 110.41 128.285 109.98C128.546 109.681 128.676 108.906 128.676 107.656V88.3785C128.676 87.0895 128.526 86.2692 128.227 85.9176C127.927 85.553 127.348 85.3447 126.488 85.2926V84.5699H134.145V86.9723C134.783 86.0348 135.434 85.3577 136.098 84.941C137.048 84.3291 138.083 84.0231 139.203 84.0231C140.544 84.0231 141.762 84.4462 142.855 85.2926C143.962 86.139 144.802 87.3108 145.375 88.8082C145.948 90.2926 146.234 91.8942 146.234 93.6129C146.234 95.4619 145.935 97.1546 145.336 98.691C144.75 100.214 143.891 101.38 142.758 102.187C141.638 102.981 140.388 103.379 139.008 103.379C138.005 103.379 137.068 103.157 136.195 102.714C135.544 102.376 134.861 101.797 134.145 100.976ZM134.145 99.0035C135.264 100.592 136.462 101.386 137.738 101.386C138.441 101.386 139.021 101.015 139.477 100.273C140.154 99.1793 140.492 97.096 140.492 94.0231C140.492 90.872 140.121 88.7171 139.379 87.5582C138.884 86.79 138.22 86.4059 137.387 86.4059C136.072 86.4059 134.991 87.3564 134.145 89.2574V99.0035ZM156.488 76.3473V99.0426C156.488 100.332 156.638 101.158 156.938 101.523C157.237 101.875 157.823 102.076 158.695 102.129V102.832H148.832V102.129C149.639 102.102 150.238 101.868 150.629 101.425C150.889 101.126 151.02 100.332 151.02 99.0426V80.1364C151.02 78.8603 150.87 78.0465 150.57 77.6949C150.271 77.3304 149.691 77.122 148.832 77.0699V76.3473H156.488ZM175.941 93.0465H165.922C166.039 95.4684 166.684 97.3824 167.855 98.7887C168.754 99.8694 169.835 100.41 171.098 100.41C171.879 100.41 172.589 100.195 173.227 99.7653C173.865 99.3226 174.548 98.5348 175.277 97.402L175.941 97.8317C174.952 99.8499 173.858 101.282 172.66 102.129C171.462 102.962 170.076 103.379 168.5 103.379C165.792 103.379 163.741 102.337 162.348 100.254C161.228 98.5739 160.668 96.4905 160.668 94.0035C160.668 90.9567 161.488 88.5348 163.129 86.7379C164.783 84.928 166.716 84.0231 168.93 84.0231C170.779 84.0231 172.38 84.7848 173.734 86.3082C175.102 87.8186 175.837 90.0647 175.941 93.0465ZM171.137 91.7379C171.137 89.6416 171.02 88.2028 170.785 87.4215C170.564 86.6403 170.212 86.0478 169.73 85.6442C169.457 85.4098 169.092 85.2926 168.637 85.2926C167.96 85.2926 167.406 85.6246 166.977 86.2887C166.208 87.4476 165.824 89.0361 165.824 91.0543V91.7379H171.137ZM189.047 91.6403L192.211 97.6559C193.305 99.7522 194.171 101.08 194.809 101.64C195.16 101.94 195.642 102.102 196.254 102.129V102.832H186.078V102.129C186.872 102.063 187.361 101.959 187.543 101.816C187.738 101.673 187.836 101.477 187.836 101.23C187.836 100.866 187.628 100.293 187.211 99.5114L185.629 96.5426L184.281 98.5153C183.669 99.4137 183.324 99.9476 183.246 100.117C183.142 100.364 183.09 100.586 183.09 100.781C183.09 101.08 183.148 101.334 183.266 101.543C183.396 101.738 183.565 101.888 183.773 101.992C183.995 102.083 184.392 102.129 184.965 102.129V102.832H177.816V102.129C178.702 102.129 179.509 101.888 180.238 101.406C180.98 100.911 182.055 99.6285 183.461 97.5582L184.965 95.3317L181.82 89.5114C180.792 87.6103 180.023 86.4449 179.516 86.0153C179.008 85.5856 178.441 85.3447 177.816 85.2926V84.5699H187.934V85.2926L187.406 85.3121L186.391 85.6637C186.286 85.7548 186.234 85.9046 186.234 86.1129C186.234 86.3082 186.267 86.5101 186.332 86.7184C186.371 86.8095 186.553 87.1611 186.879 87.7731L188.305 90.4293L189.047 89.3746C190.089 87.9423 190.609 86.9397 190.609 86.3668C190.609 86.0934 190.492 85.8655 190.258 85.6832C190.036 85.4879 189.633 85.3577 189.047 85.2926V84.5699H195.512V85.2926C194.717 85.3186 193.975 85.566 193.285 86.0348C192.595 86.4905 191.82 87.3824 190.961 88.7106L189.047 91.6403ZM202.641 75.7223C203.487 75.7223 204.203 76.0218 204.789 76.6207C205.375 77.2067 205.668 77.9163 205.668 78.7496C205.668 79.583 205.368 80.2926 204.77 80.8785C204.184 81.4645 203.474 81.7574 202.641 81.7574C201.807 81.7574 201.098 81.4645 200.512 80.8785C199.926 80.2926 199.633 79.583 199.633 78.7496C199.633 77.9163 199.926 77.2067 200.512 76.6207C201.098 76.0218 201.807 75.7223 202.641 75.7223ZM205.375 84.5699V99.0426C205.375 100.332 205.525 101.158 205.824 101.523C206.124 101.875 206.71 102.076 207.582 102.129V102.832H197.719V102.129C198.526 102.102 199.125 101.868 199.516 101.425C199.776 101.126 199.906 100.332 199.906 99.0426V88.3785C199.906 87.0895 199.757 86.2692 199.457 85.9176C199.158 85.553 198.578 85.3447 197.719 85.2926V84.5699H205.375ZM216.625 77.8903V84.5699H220.961V86.5035H216.625V97.7731C216.625 98.8278 216.671 99.5114 216.762 99.8239C216.866 100.123 217.042 100.371 217.289 100.566C217.536 100.748 217.764 100.839 217.973 100.839C218.819 100.839 219.62 100.195 220.375 98.9059L220.961 99.3356C219.906 101.836 218.194 103.086 215.824 103.086C214.665 103.086 213.682 102.767 212.875 102.129C212.081 101.477 211.573 100.755 211.352 99.9606C211.221 99.5179 211.156 98.3199 211.156 96.3668V86.5035H208.773V85.8199C210.414 84.6611 211.807 83.4436 212.953 82.1676C214.112 80.8916 215.121 79.4658 215.98 77.8903H216.625ZM231.078 103.574L225.18 90.0387C224.294 87.9944 223.637 86.7379 223.207 86.2692C222.79 85.8004 222.283 85.4749 221.684 85.2926V84.5699H231.391V85.2926C230.753 85.3186 230.303 85.4423 230.043 85.6637C229.783 85.8851 229.652 86.152 229.652 86.4645C229.652 86.9593 229.978 87.9358 230.629 89.3942L233.754 96.5426L235.883 91.0153C236.651 89.0491 237.035 87.6819 237.035 86.9137C237.035 86.4319 236.872 86.0478 236.547 85.7614C236.234 85.4749 235.674 85.3186 234.867 85.2926V84.5699H240.98V85.2926C240.382 85.3577 239.893 85.5921 239.516 85.9957C239.138 86.3864 238.507 87.734 237.621 90.0387L232.406 103.574C231.091 106.959 230.115 109.043 229.477 109.824C228.578 110.918 227.452 111.464 226.098 111.464C225.017 111.464 224.138 111.152 223.461 110.527C222.797 109.915 222.465 109.173 222.465 108.3C222.465 107.545 222.693 106.92 223.148 106.425C223.617 105.931 224.19 105.683 224.867 105.683C225.518 105.683 226.039 105.892 226.43 106.308C226.833 106.725 227.042 107.369 227.055 108.242C227.068 108.737 227.126 109.056 227.23 109.199C227.335 109.342 227.484 109.414 227.68 109.414C227.992 109.414 228.324 109.225 228.676 108.847C229.197 108.3 229.809 107.05 230.512 105.097L231.078 103.574Z" fill="black"/>
<rect x="25.5" y="70.479" width="234" height="42.8899" fill="#3D88E0" fill-opacity="0.44"/>
<rect x="260.5" y="71.9579" width="4" height="41.411" fill="black" fill-opacity="0.55"/>
<rect x="254.5" y="69" width="15" height="2.95793" fill="black" fill-opacity="0.55"/>
<rect x="254.5" y="112.629" width="15" height="2.95793" fill="black" fill-opacity="0.55"/>
</svg>
