<svg width="295" height="185" viewBox="0 0 295 185" fill="none" xmlns="http://www.w3.org/2000/svg">
<g clip-path="url(#clip0_1_214)">
<g filter="url(#filter0_d_1_214)">
<rect x="6" y="8" width="284" height="170.587" rx="8" fill="white"/>
<rect x="6.5" y="8.5" width="283" height="169.587" rx="7.5" stroke="#949494"/>
<rect x="36" y="77" width="230" height="90" rx="5" fill="#4994EC"/>
<path d="M42.2642 41V26.4545H48.0028C49.1013 26.4545 50.0388 26.651 50.8153 27.044C51.5966 27.4323 52.1908 27.9839 52.598 28.6989C53.0099 29.4091 53.2159 30.2448 53.2159 31.206C53.2159 32.1719 53.0076 33.0028 52.5909 33.6989C52.1742 34.3902 51.5705 34.9205 50.7798 35.2898C49.9938 35.6591 49.0421 35.8438 47.9247 35.8438H44.0824V33.3722H47.4276C48.0147 33.3722 48.5024 33.2917 48.8906 33.1307C49.2789 32.9697 49.5677 32.7282 49.7571 32.4062C49.9512 32.0843 50.0483 31.6842 50.0483 31.206C50.0483 30.723 49.9512 30.3158 49.7571 29.9844C49.5677 29.6529 49.2765 29.402 48.8835 29.2315C48.4953 29.0563 48.0052 28.9688 47.4134 28.9688H45.3395V41H42.2642ZM50.1193 34.3807L53.7344 41H50.3395L46.8026 34.3807H50.1193ZM60.1282 41.2131C59.006 41.2131 58.0401 40.9858 57.2305 40.5312C56.4255 40.072 55.8053 39.4233 55.3697 38.5852C54.9341 37.7424 54.7163 36.7457 54.7163 35.5952C54.7163 34.473 54.9341 33.4882 55.3697 32.6406C55.8053 31.7931 56.4184 31.1326 57.2092 30.6591C58.0046 30.1856 58.9374 29.9489 60.0075 29.9489C60.7272 29.9489 61.3971 30.0649 62.0174 30.2969C62.6424 30.5241 63.1869 30.8674 63.6509 31.3267C64.1197 31.786 64.4843 32.3636 64.7447 33.0597C65.0051 33.7509 65.1353 34.5606 65.1353 35.4886V36.3196H55.9237V34.4446H62.2873C62.2873 34.009 62.1926 33.6231 62.0032 33.2869C61.8138 32.9508 61.551 32.688 61.2148 32.4986C60.8834 32.3045 60.4975 32.2074 60.0572 32.2074C59.5979 32.2074 59.1907 32.3139 58.8356 32.527C58.4852 32.7353 58.2106 33.017 58.0117 33.3722C57.8129 33.7225 57.7111 34.1132 57.7063 34.544V36.3267C57.7063 36.8665 57.8058 37.3329 58.0046 37.7259C58.2082 38.1188 58.4947 38.4219 58.864 38.6349C59.2333 38.848 59.6713 38.9545 60.1779 38.9545C60.5141 38.9545 60.8219 38.9072 61.1012 38.8125C61.3806 38.7178 61.6197 38.5758 61.8185 38.3864C62.0174 38.197 62.1689 37.965 62.2731 37.6903L65.0714 37.875C64.9293 38.5473 64.6381 39.1345 64.1978 39.6364C63.7622 40.1335 63.1987 40.5218 62.5075 40.8011C61.8209 41.0758 61.0278 41.2131 60.1282 41.2131ZM76.1864 33.2017L73.4165 33.3722C73.3692 33.1354 73.2674 32.9223 73.1112 32.733C72.9549 32.5388 72.7489 32.3849 72.4933 32.2713C72.2423 32.1529 71.9416 32.0938 71.5913 32.0938C71.1225 32.0938 70.7272 32.1932 70.4052 32.392C70.0832 32.5862 69.9222 32.8466 69.9222 33.1733C69.9222 33.4337 70.0264 33.6539 70.2347 33.8338C70.4431 34.0137 70.8005 34.1581 71.3072 34.267L73.2816 34.6648C74.3422 34.8826 75.1329 35.233 75.6538 35.7159C76.1746 36.1989 76.435 36.8333 76.435 37.6193C76.435 38.3343 76.2243 38.9616 75.8029 39.5014C75.3862 40.0412 74.8133 40.4626 74.0842 40.7656C73.3597 41.0639 72.524 41.2131 71.5771 41.2131C70.1329 41.2131 68.9824 40.9124 68.1254 40.3111C67.2731 39.705 66.7736 38.8812 66.6268 37.8395L69.6026 37.6832C69.6926 38.1236 69.9104 38.4598 70.256 38.6918C70.6017 38.919 71.0444 39.0327 71.5842 39.0327C72.1145 39.0327 72.5406 38.9309 72.8626 38.7273C73.1893 38.5189 73.355 38.2514 73.3597 37.9247C73.355 37.6501 73.239 37.4252 73.0117 37.25C72.7844 37.0701 72.4341 36.9328 71.9606 36.8381L70.0714 36.4616C69.006 36.2486 68.2129 35.8793 67.6921 35.3537C67.176 34.8281 66.918 34.1581 66.918 33.3438C66.918 32.643 67.1074 32.0393 67.4862 31.5327C67.8697 31.026 68.4071 30.6354 69.0984 30.3608C69.7944 30.0862 70.6088 29.9489 71.5415 29.9489C72.9194 29.9489 74.0037 30.2401 74.7944 30.8224C75.5898 31.4048 76.0539 32.1979 76.1864 33.2017ZM85.3359 36.3551V30.0909H88.3615V41H85.4567V39.0185H85.343C85.0968 39.6577 84.6873 40.1714 84.1143 40.5597C83.5462 40.9479 82.8525 41.142 82.0334 41.142C81.3042 41.142 80.6626 40.9763 80.1087 40.6449C79.5547 40.3134 79.1214 39.8423 78.8089 39.2315C78.5012 38.6207 78.3449 37.8892 78.3402 37.0369V30.0909H81.3658V36.4972C81.3705 37.1411 81.5433 37.6501 81.8842 38.0241C82.2251 38.3982 82.6821 38.5852 83.255 38.5852C83.6196 38.5852 83.9605 38.5024 84.2777 38.3366C84.5949 38.1662 84.8506 37.9152 85.0447 37.5838C85.2436 37.2524 85.3407 36.8428 85.3359 36.3551ZM93.8072 26.4545V41H90.7816V26.4545H93.8072ZM102.033 30.0909V32.3636H95.4638V30.0909H102.033ZM96.9553 27.4773H99.9808V37.6477C99.9808 37.9271 100.023 38.1449 100.109 38.3011C100.194 38.4527 100.312 38.5592 100.464 38.6207C100.62 38.6823 100.8 38.7131 101.004 38.7131C101.146 38.7131 101.288 38.7012 101.43 38.6776C101.572 38.6491 101.681 38.6278 101.756 38.6136L102.232 40.8651C102.081 40.9124 101.868 40.9669 101.593 41.0284C101.318 41.0947 100.985 41.1349 100.592 41.1491C99.8625 41.1776 99.2232 41.0805 98.674 40.858C98.1295 40.6354 97.7057 40.2898 97.4027 39.821C97.0997 39.3523 96.9505 38.7604 96.9553 38.0455V27.4773ZM112.944 33.2017L110.174 33.3722C110.127 33.1354 110.025 32.9223 109.869 32.733C109.713 32.5388 109.507 32.3849 109.251 32.2713C109 32.1529 108.699 32.0938 108.349 32.0938C107.88 32.0938 107.485 32.1932 107.163 32.392C106.841 32.5862 106.68 32.8466 106.68 33.1733C106.68 33.4337 106.784 33.6539 106.993 33.8338C107.201 34.0137 107.558 34.1581 108.065 34.267L110.039 34.6648C111.1 34.8826 111.891 35.233 112.412 35.7159C112.932 36.1989 113.193 36.8333 113.193 37.6193C113.193 38.3343 112.982 38.9616 112.561 39.5014C112.144 40.0412 111.571 40.4626 110.842 40.7656C110.118 41.0639 109.282 41.2131 108.335 41.2131C106.891 41.2131 105.74 40.9124 104.883 40.3111C104.031 39.705 103.531 38.8812 103.385 37.8395L106.36 37.6832C106.45 38.1236 106.668 38.4598 107.014 38.6918C107.359 38.919 107.802 39.0327 108.342 39.0327C108.872 39.0327 109.298 38.9309 109.62 38.7273C109.947 38.5189 110.113 38.2514 110.118 37.9247C110.113 37.6501 109.997 37.4252 109.77 37.25C109.542 37.0701 109.192 36.9328 108.718 36.8381L106.829 36.4616C105.764 36.2486 104.971 35.8793 104.45 35.3537C103.934 34.8281 103.676 34.1581 103.676 33.3438C103.676 32.643 103.865 32.0393 104.244 31.5327C104.627 31.026 105.165 30.6354 105.856 30.3608C106.552 30.0862 107.367 29.9489 108.299 29.9489C109.677 29.9489 110.761 30.2401 111.552 30.8224C112.348 31.4048 112.812 32.1979 112.944 33.2017Z" fill="#585858"/>
<rect x="41" y="77" width="230" height="90" rx="5" fill="#F0F0F0"/>
<line x1="39" y1="51.5" x2="271" y2="51.5" stroke="black" stroke-opacity="0.24"/>
<rect x="54" y="91" width="141" height="8" fill="#D9D9D9"/>
<rect width="63" height="8" transform="matrix(-1 0 0 1 263 91)" fill="#D9D9D9"/>
<rect x="54" y="110" width="58" height="8" fill="#D9D9D9"/>
<rect x="126" y="110" width="137" height="8" fill="#D9D9D9"/>
<rect x="54" y="148" width="107" height="8" fill="#D9D9D9"/>
<rect x="167" y="148" width="96" height="8" fill="#D9D9D9"/>
<rect x="200" y="129" width="63" height="8" fill="#D9D9D9"/>
<rect x="132" y="129" width="63" height="8" fill="#D9D9D9"/>
<rect x="54" y="129" width="72" height="8" fill="#D9D9D9"/>
<rect x="39" y="61" width="93" height="8" fill="#4994EC"/>
</g>
</g>
<defs>
<filter id="filter0_d_1_214" x="1" y="8" width="292" height="178.587" filterUnits="userSpaceOnUse" color-interpolation-filters="sRGB">
<feFlood flood-opacity="0" result="BackgroundImageFix"/>
<feColorMatrix in="SourceAlpha" type="matrix" values="0 0 0 0 0 0 0 0 0 0 0 0 0 0 0 0 0 0 127 0" result="hardAlpha"/>
<feOffset dx="-1" dy="4"/>
<feGaussianBlur stdDeviation="2"/>
<feComposite in2="hardAlpha" operator="out"/>
<feColorMatrix type="matrix" values="0 0 0 0 0 0 0 0 0 0 0 0 0 0 0 0 0 0 0.25 0"/>
<feBlend mode="normal" in2="BackgroundImageFix" result="effect1_dropShadow_1_214"/>
<feBlend mode="normal" in="SourceGraphic" in2="effect1_dropShadow_1_214" result="shape"/>
</filter>
<clipPath id="clip0_1_214">
<rect width="295" height="185" fill="white"/>
</clipPath>
</defs>
</svg>
