<svg width="295" height="185" viewBox="0 0 295 185" fill="none" xmlns="http://www.w3.org/2000/svg">
<g filter="url(#filter0_d_1_203)">
<path d="M62.5374 87.7265C62.5375 85.8316 63.8654 84.2058 65.7027 83.8146L65.882 83.7805L155.457 68.8946C156.029 68.7995 156.614 68.83 157.172 68.983L157.408 69.0558L228.834 93.5052C230.35 94.0244 231.4 95.3932 231.526 96.971L231.538 97.2896L231.538 106.273C231.538 107.943 230.502 109.424 228.963 110.011L228.648 110.117L130.431 138.485C129.424 138.776 128.345 138.659 127.427 138.165L127.245 138.061L64.4622 99.9577C63.342 99.2778 62.631 98.0958 62.5464 96.7991L62.5379 96.538L62.5374 87.7265Z" fill="#AFD4FF" stroke="#4994EC" stroke-width="2"/>
<path d="M63.6615 87.5518C60.735 85.758 61.3007 81.4089 64.4634 80.3542L64.7771 80.2621L155.044 57.5819C155.831 57.3843 156.656 57.4314 157.411 57.7115L157.73 57.8452L228.677 91.4016C231.906 92.9288 231.637 97.5406 228.396 98.7547L228.073 98.8621L130.442 126.959C129.43 127.25 128.348 127.129 127.428 126.63L127.245 126.524L63.6615 87.5518Z" fill="#F2F8FF" stroke="#4994EC" stroke-width="2"/>
<path d="M134.298 98.0123C130.447 99.2189 126.655 100.372 122.896 101.486C124.594 103.88 126.345 106.283 128.122 108.71C127.595 108.876 126.055 109.189 125.538 109.352C119.701 101.248 115.002 93.5633 110.038 85.8524C110.516 85.6972 111.359 85.1563 111.82 85.0151C123.173 90.8135 135.937 96.3252 149.407 101.694C148.291 102.069 147.168 102.457 146.052 102.833C142.112 101.234 138.182 99.6335 134.298 98.0123ZM131.764 96.9469C125.608 94.2441 119.748 91.4873 114.234 88.6756C114.195 88.6841 114.155 88.6926 114.118 88.7109C116.586 92.4312 119.131 96.1758 121.783 99.9479C125.072 98.9763 128.407 97.9843 131.764 96.9469ZM154.756 99.8947C144.952 93.4523 134.926 87.1196 125.108 80.8029C125.961 80.5355 126.823 80.2659 127.686 79.9964C137.161 85.6813 146.636 91.4075 155.82 97.2582C160.355 95.7595 164.986 94.2298 169.71 92.6592C170.493 93.154 171.276 93.6488 172.049 94.1457C166.122 96.1112 160.358 98.0308 154.756 99.8947ZM182.004 90.792C180.785 91.2108 179.545 91.6241 178.335 92.0407C168.906 86.4276 158.915 81.1005 148.039 76.1296C144.565 77.1416 141.237 78.1217 138.063 79.058C137.138 78.6146 136.222 78.1692 135.307 77.7237C142.79 75.573 151.105 73.1494 159.753 70.5612C160.639 70.9209 161.526 71.2805 162.403 71.6423C158.822 72.8208 155.232 73.9603 151.653 75.0564C162.459 79.9402 172.479 85.2099 182.004 90.792Z" fill="#4994EC"/>
</g>
<path d="M65.5381 85.5L156.538 63.5L226.538 96.5" stroke="white" stroke-width="3"/>
<defs>
<filter id="filter0_d_1_203" x="60.7498" y="56.4612" width="171.788" height="88.1808" filterUnits="userSpaceOnUse" color-interpolation-filters="sRGB">
<feFlood flood-opacity="0" result="BackgroundImageFix"/>
<feColorMatrix in="SourceAlpha" type="matrix" values="0 0 0 0 0 0 0 0 0 0 0 0 0 0 0 0 0 0 127 0" result="hardAlpha"/>
<feOffset dy="5"/>
<feComposite in2="hardAlpha" operator="out"/>
<feColorMatrix type="matrix" values="0 0 0 0 0.286275 0 0 0 0 0.580392 0 0 0 0 0.92549 0 0 0 0.45 0"/>
<feBlend mode="normal" in2="BackgroundImageFix" result="effect1_dropShadow_1_203"/>
<feBlend mode="normal" in="SourceGraphic" in2="effect1_dropShadow_1_203" result="shape"/>
</filter>
</defs>
</svg>
